<svg xmlns="http://www.w3.org/2000/svg" viewBox="0 0 720 720" role="img" aria-labelledby="title desc">
  <title id="title">Agaie Emirate Consultative Forum logo</title>
  <desc id="desc">Blue circular Agaie Consultative Forum emblem with yellow stars, community illustration and motto.</desc>
  <defs>
    <path id="topArc" d="M 92 318 A 268 268 0 0 1 628 318"/>
    <path id="bottomArc" d="M 114 408 A 254 254 0 0 0 606 408"/>
  </defs>
  <rect width="720" height="720" fill="#fff"/>
  <circle cx="360" cy="320" r="300" fill="#fff" stroke="#078dcb" stroke-width="7"/>
  <circle cx="360" cy="320" r="263" fill="#fff" stroke="#078dcb" stroke-width="6"/>
  <text fill="#078dcb" font-family="Arial, Helvetica, sans-serif" font-size="48" font-weight="700" letter-spacing="2">
    <textPath href="#topArc" startOffset="50%" text-anchor="middle">AGAIE EMIRATE CONSULTATIVE FORUM</textPath>
  </text>
  <path d="M 104 410 A 262 262 0 0 0 616 410 L 592 466 A 250 250 0 0 1 128 466 Z" fill="#078dcb"/>
  <text fill="#fff" font-family="Arial, Helvetica, sans-serif" font-size="36" font-weight="700" letter-spacing="1">
    <textPath href="#bottomArc" startOffset="50%" text-anchor="middle">AGAIE NIGER STATE</textPath>
  </text>
  <g fill="#ffe500" stroke="#ffe500">
    <path d="M92 430 l9 20 22 0-17 13 6 21-20-12-19 12 6-21-17-13h22z"/>
    <path d="M628 430 l9 20 22 0-17 13 6 21-20-12-19 12 6-21-17-13h22z"/>
  </g>
  <g transform="translate(360 245)">
    <path d="M-112-54 Q-80-77 -45-65 L-35-37 L-81-39 Z" fill="#f2e9a0" stroke="#34495e" stroke-width="5"/>
    <path d="M-83-39 L-36-37 L-44-17 L-77-21Z" fill="#f9f5cf" stroke="#34495e" stroke-width="4"/>
    <path d="M-47-20 L-15 24" stroke="#a67c52" stroke-width="10" stroke-linecap="round"/>
    <path d="M-46-18 L-8-42" stroke="#a67c52" stroke-width="9" stroke-linecap="round"/>
    <circle cx="-8" cy="-42" r="8" fill="#1f3441"/>
    <path d="M-34 25 L-57 72 M-2 25 L14 72" stroke="#1f3441" stroke-width="9" stroke-linecap="round"/>
    <path d="M-48 8 Q-25-5 -5 7 L10 70 L-58 70 Z" fill="#eef2f5" stroke="#50616b" stroke-width="4"/>
    <circle cx="-25" cy="-2" r="13" fill="#f1c7a7" stroke="#34495e" stroke-width="4"/>
    <path d="M-38-6 Q-28-24 -15-7" fill="none" stroke="#1f3441" stroke-width="6"/>
    <path d="M-4 28 Q-5 0 22-8 Q53-4 59 23 L47 75 L-7 75Z" fill="#78d3ee" stroke="#50616b" stroke-width="4"/>
    <circle cx="27" cy="-9" r="13" fill="#f1c7a7" stroke="#34495e" stroke-width="4"/>
    <path d="M14-11 Q27-31 40-10" fill="none" stroke="#533a2c" stroke-width="7"/>
    <path d="M15 25 L-2 70 M44 22 L60 70" stroke="#1f3441" stroke-width="9" stroke-linecap="round"/>
    <path d="M-96 65 Q-68 44 -45 67 L-40 112 L-108 112Z" fill="#f1f3f5" stroke="#50616b" stroke-width="4"/>
    <circle cx="-73" cy="44" r="12" fill="#8e6849" stroke="#34495e" stroke-width="4"/>
    <path d="M-84 40 Q-73 24 -61 40" fill="none" stroke="#1f3441" stroke-width="6"/>
    <path d="M-93 80 L-114 113 M-53 78 L-34 113" stroke="#1f3441" stroke-width="9" stroke-linecap="round"/>
    <path d="M54 58 Q89 39 111 69 L104 113 L33 113Z" fill="#ef89a1" stroke="#50616b" stroke-width="4"/>
    <circle cx="82" cy="38" r="12" fill="#8e6849" stroke="#34495e" stroke-width="4"/>
    <path d="M69 36 Q82 17 95 36" fill="none" stroke="#593d32" stroke-width="6"/>
    <path d="M56 80 L41 113 M96 79 L116 113" stroke="#1f3441" stroke-width="9" stroke-linecap="round"/>
    <path d="M-12 0 L0 12 L12 0 L0-12Z M-11 24 L0 36 L11 24 L0 12Z M-24 12 L-12 24 L0 12 L-12 0Z M0 12 L12 24 L24 12 L12 0Z" fill="none" stroke="#078dcb" stroke-width="5"/>
  </g>
  <rect x="46" y="610" width="628" height="92" fill="#fff" stroke="#078dcb" stroke-width="5"/>
  <path d="M46 610 L150 574 L570 574 L674 610" fill="#fff" stroke="#078dcb" stroke-width="5"/>
  <text x="360" y="670" text-anchor="middle" fill="#078dcb" font-family="Arial, Helvetica, sans-serif" font-size="31" font-weight="700" letter-spacing="1">EMIGUN BE YEGBOROLOE</text>
</svg>
